<?xml version="1.0" encoding="UTF-8"?>
<svg height="128px" viewBox="0 0 128 128" width="128px" xmlns="http://www.w3.org/2000/svg" xmlns:xlink="http://www.w3.org/1999/xlink">
    <defs>
        <linearGradient id="a" gradientUnits="userSpaceOnUse" x1="64" x2="64" y1="4" y2="64">
            <stop offset="0" stop-color="#9141ac"/>
            <stop offset="0.466667" stop-color="#813d9c"/>
            <stop offset="1" stop-color="#613583"/>
        </linearGradient>
        <filter id="b" height="100%" width="100%" x="0%" y="0%">
            <feColorMatrix in="SourceGraphic" type="matrix" values="0 0 0 0 1 0 0 0 0 1 0 0 0 0 1 0 0 0 1 0"/>
        </filter>
        <mask id="c">
            <g filter="url(#b)">
                <rect fill-opacity="0.1" height="128" width="128"/>
            </g>
        </mask>
        <radialGradient id="d" cx="64.00003138" cy="64" gradientUnits="userSpaceOnUse" r="48.99996962">
            <stop offset="0" stop-color="#5e5c64"/>
            <stop offset="0.72" stop-color="#3d3846"/>
            <stop offset="1" stop-color="#241f31"/>
        </radialGradient>
        <mask id="e">
            <g filter="url(#b)">
                <rect fill-opacity="0.2" height="128" width="128"/>
            </g>
        </mask>
        <linearGradient id="f" gradientUnits="userSpaceOnUse" x1="32" x2="96" y1="96" y2="32">
            <stop offset="0" stop-color="#9a9996"/>
            <stop offset="0.25" stop-color="#c0bfbc"/>
            <stop offset="0.5" stop-color="#f6f5f4"/>
            <stop offset="0.75" stop-color="#c0bfbc"/>
            <stop offset="1" stop-color="#5e5c64"/>
        </linearGradient>
        <linearGradient id="g" gradientUnits="userSpaceOnUse">
            <stop offset="0" stop-color="#cdab8f"/>
            <stop offset="1" stop-color="#ffbe6f"/>
        </linearGradient>
        <linearGradient id="h" x1="15.22916" x2="111.229584" xlink:href="#g" y1="91.22937" y2="91.22937"/>
        <linearGradient id="i" gradientTransform="matrix(0.866025 0.5 -0.5 0.866025 54.085814 -19.392267)" x1="15.22916" x2="111.229584" xlink:href="#g" y1="91.22937" y2="91.22937"/>
        <linearGradient id="j" gradientTransform="matrix(0.5 0.866025 -0.866025 0.5 110.621637 -9.143556)" x1="15.22916" x2="111.229584" xlink:href="#g" y1="91.22937" y2="91.22937"/>
        <linearGradient id="k" gradientTransform="matrix(0 1 -1 0 154.45874 28)" x1="15.22916" x2="111.229584" xlink:href="#g" y1="91.22937" y2="91.22937"/>
        <linearGradient id="l" gradientTransform="matrix(-0.5 0.866025 -0.866025 -0.5 173.851007 82.085814)" x1="15.22916" x2="111.229584" xlink:href="#g" y1="91.22937" y2="91.22937"/>
        <linearGradient id="m" gradientTransform="matrix(-0.866025 0.5 -0.5 -0.866025 163.602296 138.621637)" x1="15.22916" x2="111.229584" xlink:href="#g" y1="91.22937" y2="91.22937"/>
        <linearGradient id="n" gradientUnits="userSpaceOnUse">
            <stop offset="0" stop-color="#99c1f1"/>
            <stop offset="1" stop-color="#c0bfbc"/>
        </linearGradient>
        <linearGradient id="o" gradientTransform="matrix(0.965926 0.258819 -0.258819 0.965926 25.766387 -13.2564)" x1="15.22916" x2="111.229584" xlink:href="#n" y1="91.22937" y2="91.22937"/>
        <linearGradient id="p" gradientTransform="matrix(0.707107 0.707107 -0.707107 0.707107 83.02836 -17.989453)" x1="15.22916" x2="111.229584" xlink:href="#n" y1="91.22937" y2="91.22937"/>
        <linearGradient id="q" gradientTransform="matrix(0.258819 0.965926 -0.965926 0.258819 134.98521 6.54259)" x1="15.22916" x2="111.229584" xlink:href="#n" y1="91.22937" y2="91.22937"/>
        <linearGradient id="r" gradientTransform="matrix(-0.258819 0.965926 -0.965926 -0.258819 167.71514 53.766387)" x1="15.22916" x2="111.229584" xlink:href="#n" y1="91.22937" y2="91.22937"/>
        <linearGradient id="s" gradientTransform="matrix(-0.707107 0.707107 -0.707107 -0.707107 172.448193 111.02836)" x1="15.22916" x2="111.229584" xlink:href="#n" y1="91.22937" y2="91.22937"/>
        <linearGradient id="t" gradientTransform="matrix(-0.965926 0.258819 -0.258819 -0.965926 147.91615 162.98521)" x1="15.22916" x2="111.229584" xlink:href="#n" y1="91.22937" y2="91.22937"/>
        <mask id="u">
            <g filter="url(#b)">
                <rect fill-opacity="0.1" height="128" width="128"/>
            </g>
        </mask>
        <clipPath id="v">
            <rect height="152" width="192"/>
        </clipPath>
        <g id="w" clip-path="url(#v)">
            <path d="m 72 30 c -27.613281 0 -50 22.386719 -50 50 c 0.007812 0.363281 0.023438 0.722656 0.039062 1.085938 c 0.417969 -27.300782 22.660157 -49.214844 49.960938 -49.234376 c 27.179688 0.015626 49.371094 21.742188 49.960938 48.914063 c 0.015624 -0.253906 0.027343 -0.511719 0.039062 -0.765625 c 0 -27.613281 -22.386719 -50 -50 -50 z m 0 0" fill="#ffffff"/>
        </g>
        <mask id="x">
            <g filter="url(#b)">
                <rect fill-opacity="0.2" height="128" width="128"/>
            </g>
        </mask>
        <clipPath id="y">
            <rect height="152" width="192"/>
        </clipPath>
        <g id="z" clip-path="url(#y)">
            <path d="m 72 37 c -24.851562 0 -45 20.148438 -45 45 s 20.148438 45 45 45 s 45 -20.148438 45 -45 s -20.148438 -45 -45 -45 z m 0 4 c 22.644531 0 41 18.355469 41 41 s -18.355469 41 -41 41 s -41 -18.355469 -41 -41 s 18.355469 -41 41 -41 z m 0 0"/>
        </g>
        <clipPath id="A">
            <rect height="128" width="128"/>
        </clipPath>
        <clipPath id="B">
            <rect height="128" width="128"/>
        </clipPath>
        <mask id="C">
            <g clip-path="url(#B)" filter="url(#b)">
                <g clip-path="url(#A)">
                    <path d="m 124 66 c 0 33.136719 -26.863281 60 -60 60 s -60 -26.863281 -60 -60 s 26.863281 -60 60 -60 s 60 26.863281 60 60 z m 0 0" fill="#613583"/>
                    <path d="m 124 66 c 0 33.136719 -26.863281 60 -60 60 s -60 -26.863281 -60 -60 s 26.863281 -60 60 -60 s 60 26.863281 60 60 z m 0 0" fill-opacity="0.4"/>
                    <path d="m 64 8 c 30.929688 0 56 25.070312 56 56 v 2 c 0 30.929688 -25.070312 56 -56 56 s -56 -25.070312 -56 -56 v -2 c 0 -30.929688 25.070312 -56 56 -56 z m 0 0" fill="#d5d3cf"/>
                    <path d="m 124 64 c 0 33.136719 -26.863281 60 -60 60 s -60 -26.863281 -60 -60 s 26.863281 -60 60 -60 s 60 26.863281 60 60 z m 0 0" fill="url(#a)"/>
                    <path d="m 114 64 c 0 27.613281 -22.386719 50 -50 50 s -50 -22.386719 -50 -50 s 22.386719 -50 50 -50 s 50 22.386719 50 50 z m 0 0" fill="#62a0ea"/>
                    <use mask="url(#u)" transform="matrix(1 0 0 1 -8 -16)" xlink:href="#w"/>
                    <path d="m 113 64 c 0 27.0625 -21.9375 49 -49 49 s -49 -21.9375 -49 -49 s 21.9375 -49 49 -49 s 49 21.9375 49 49 z m 0 0" fill="url(#d)"/>
                    <use mask="url(#x)" transform="matrix(1 0 0 1 -8 -16)" xlink:href="#z"/>
                    <path d="m 64 19 c -24.851562 0 -45 20.148438 -45 45 s 20.148438 45 45 45 s 45 -20.148438 45 -45 s -20.148438 -45 -45 -45 z m 0 4 c 22.644531 0 41 18.355469 41 41 s -18.355469 41 -41 41 s -41 -18.355469 -41 -41 s 18.355469 -41 41 -41 z m 0 0" fill="url(#f)"/>
                    <path d="m 63.229349 85.506729 c -25.957031 0 -47 2.5625 -47 5.722656 c 0 3.160157 21.042969 5.722657 47 5.722657 c 25.957032 0 47 -2.5625 47 -5.722657 c 0 -3.160156 -21.042968 -5.722656 -47 -5.722656 z m 0 0" fill="none" stroke="url(#h)" stroke-linecap="round" stroke-linejoin="round" stroke-width="2" transform="matrix(1 0 0 1 0.770651 -27.229385)"/>
                    <path d="m 66.088724 86.272354 c -22.476562 -12.976562 -41.984375 -21.28125 -43.5625 -18.542969 c -1.582031 2.738282 15.363282 15.476563 37.84375 28.457032 c 22.476563 12.976562 41.984375 21.28125 43.5625 18.542968 c 1.582032 -2.738281 -15.363281 -15.476562 -37.84375 -28.457031 z m 0 0" fill="none" stroke="url(#i)" stroke-linecap="round" stroke-linejoin="round" stroke-width="2" transform="matrix(1 0 0 1 0.770651 -27.229385)"/>
                    <path d="m 68.186381 88.37001 c -12.980469 -22.480468 -25.71875 -39.425781 -28.457032 -37.84375 c -2.738281 1.578125 5.566407 21.085938 18.542969 43.5625 c 12.980469 22.480469 25.71875 39.425782 28.457031 37.84375 c 2.738282 -1.578125 -5.566406 -21.085937 -18.542968 -43.5625 z m 0 0" fill="none" stroke="url(#j)" stroke-linecap="round" stroke-linejoin="round" stroke-width="2" transform="matrix(1 0 0 1 0.770651 -27.229385)"/>
                    <path d="m 68.952006 91.229385 c 0 -25.957031 -2.5625 -47 -5.722657 -47 c -3.160156 0 -5.722656 21.042969 -5.722656 47 c 0 25.957032 2.5625 47 5.722656 47 c 3.160157 0 5.722657 -21.042968 5.722657 -47 z m 0 0" fill="none" stroke="url(#k)" stroke-linecap="round" stroke-linejoin="round" stroke-width="2" transform="matrix(1 0 0 1 0.770651 -27.229385)"/>
                    <path d="m 68.186381 94.08876 c 12.976562 -22.476562 21.28125 -41.984375 18.542968 -43.5625 c -2.738281 -1.582031 -15.476562 15.363282 -28.457031 37.84375 c -12.976562 22.476563 -21.28125 41.984375 -18.542969 43.5625 c 2.738282 1.582032 15.476563 -15.363281 28.457032 -37.84375 z m 0 0" fill="none" stroke="url(#l)" stroke-linecap="round" stroke-linejoin="round" stroke-width="2" transform="matrix(1 0 0 1 0.770651 -27.229385)"/>
                    <path d="m 66.088724 96.186417 c 22.480469 -12.980469 39.425782 -25.71875 37.84375 -28.457032 c -1.578125 -2.738281 -21.085937 5.566407 -43.5625 18.542969 c -22.480468 12.980469 -39.425781 25.71875 -37.84375 28.457031 c 1.578125 2.738282 21.085938 -5.566406 43.5625 -18.542968 z m 0 0" fill="none" stroke="url(#m)" stroke-linecap="round" stroke-linejoin="round" stroke-width="2" transform="matrix(1 0 0 1 0.770651 -27.229385)"/>
                    <path d="m 64.709818 85.702042 c -25.074219 -6.71875 -46.0625 -9.691407 -46.878906 -6.636719 c -0.816406 3.050781 18.84375 10.972656 43.917969 17.691406 c 25.074218 6.71875 46.0625 9.691406 46.878906 6.636719 c 0.816406 -3.050781 -18.84375 -10.972656 -43.917969 -17.691406 z m 0 0" fill="none" stroke="url(#o)" stroke-linecap="round" stroke-linejoin="round" stroke-width="2" transform="matrix(1 0 0 1 0.770651 -27.229385)"/>
                    <path d="m 67.276224 87.18251 c -18.355468 -18.355468 -35.046875 -31.421875 -37.28125 -29.1875 s 10.832032 18.925782 29.1875 37.28125 c 18.355469 18.355469 35.046875 31.421875 37.28125 29.1875 s -10.832031 -18.925781 -29.1875 -37.28125 z m 0 0" fill="none" stroke="url(#p)" stroke-linecap="round" stroke-linejoin="round" stroke-width="2" transform="matrix(1 0 0 1 0.770651 -27.229385)"/>
                    <path d="m 68.756693 89.748917 c -6.71875 -25.074219 -14.640625 -44.734375 -17.691406 -43.917969 c -3.054688 0.816406 -0.082031 21.804687 6.636719 46.878906 s 14.640625 44.734375 17.691406 43.917969 c 3.054687 -0.816406 0.082031 -21.804688 -6.636719 -46.878906 z m 0 0" fill="none" stroke="url(#q)" stroke-linecap="round" stroke-linejoin="round" stroke-width="2" transform="matrix(1 0 0 1 0.770651 -27.229385)"/>
                    <path d="m 68.756693 92.709854 c 6.71875 -25.074219 9.691406 -46.0625 6.636719 -46.878906 c -3.050781 -0.816406 -10.972656 18.84375 -17.691406 43.917969 c -6.71875 25.074218 -9.691407 46.0625 -6.636719 46.878906 c 3.050781 0.816406 10.972656 -18.84375 17.691406 -43.917969 z m 0 0" fill="none" stroke="url(#r)" stroke-linecap="round" stroke-linejoin="round" stroke-width="2" transform="matrix(1 0 0 1 0.770651 -27.229385)"/>
                    <path d="m 67.276224 95.27626 c 18.355469 -18.355468 31.421875 -35.046875 29.1875 -37.28125 s -18.925781 10.832032 -37.28125 29.1875 c -18.355468 18.355469 -31.421875 35.046875 -29.1875 37.28125 s 18.925782 -10.832031 37.28125 -29.1875 z m 0 0" fill="none" stroke="url(#s)" stroke-linecap="round" stroke-linejoin="round" stroke-width="2" transform="matrix(1 0 0 1 0.770651 -27.229385)"/>
                    <path d="m 64.709818 96.756729 c 25.074219 -6.71875 44.734375 -14.640625 43.917969 -17.691406 c -0.816406 -3.054688 -21.804688 -0.082031 -46.878906 6.636719 c -25.074219 6.71875 -44.734375 14.640625 -43.917969 17.691406 c 0.816406 3.054687 21.804687 0.082031 46.878906 -6.636719 z m 0 0" fill="none" stroke="url(#t)" stroke-linecap="round" stroke-linejoin="round" stroke-width="2" transform="matrix(1 0 0 1 0.770651 -27.229385)"/>
                </g>
            </g>
        </mask>
        <mask id="D">
            <g filter="url(#b)">
                <rect fill-opacity="0.8" height="128" width="128"/>
            </g>
        </mask>
        <linearGradient id="E" gradientTransform="matrix(0 0.37 -0.98462 0 295.38501 -30.360001)" gradientUnits="userSpaceOnUse" x1="300" x2="428" y1="235" y2="235">
            <stop offset="0" stop-color="#f9f06b"/>
            <stop offset="1" stop-color="#f5c211"/>
        </linearGradient>
        <clipPath id="F">
            <rect height="128" width="128"/>
        </clipPath>
        <clipPath id="G">
            <rect height="128" width="128"/>
        </clipPath>
    </defs>
    <path d="m 124 66 c 0 33.136719 -26.863281 60 -60 60 s -60 -26.863281 -60 -60 s 26.863281 -60 60 -60 s 60 26.863281 60 60 z m 0 0" fill="#613583"/>
    <path d="m 124 66 c 0 33.136719 -26.863281 60 -60 60 s -60 -26.863281 -60 -60 s 26.863281 -60 60 -60 s 60 26.863281 60 60 z m 0 0" fill-opacity="0.4"/>
    <path d="m 64 8 c 30.929688 0 56 25.070312 56 56 v 2 c 0 30.929688 -25.070312 56 -56 56 s -56 -25.070312 -56 -56 v -2 c 0 -30.929688 25.070312 -56 56 -56 z m 0 0" fill="#d5d3cf"/>
    <path d="m 124 64 c 0 33.136719 -26.863281 60 -60 60 s -60 -26.863281 -60 -60 s 26.863281 -60 60 -60 s 60 26.863281 60 60 z m 0 0" fill="url(#a)"/>
    <path d="m 114 64 c 0 27.613281 -22.386719 50 -50 50 s -50 -22.386719 -50 -50 s 22.386719 -50 50 -50 s 50 22.386719 50 50 z m 0 0" fill="#62a0ea"/>
    <use mask="url(#c)" transform="matrix(1 0 0 1 -8 -16)" xlink:href="#w"/>
    <path d="m 113 64 c 0 27.0625 -21.9375 49 -49 49 s -49 -21.9375 -49 -49 s 21.9375 -49 49 -49 s 49 21.9375 49 49 z m 0 0" fill="url(#d)"/>
    <use mask="url(#e)" transform="matrix(1 0 0 1 -8 -16)" xlink:href="#z"/>
    <path d="m 64 19 c -24.851562 0 -45 20.148438 -45 45 s 20.148438 45 45 45 s 45 -20.148438 45 -45 s -20.148438 -45 -45 -45 z m 0 4 c 22.644531 0 41 18.355469 41 41 s -18.355469 41 -41 41 s -41 -18.355469 -41 -41 s 18.355469 -41 41 -41 z m 0 0" fill="url(#f)"/>
    <g fill="none" stroke-linecap="round" stroke-linejoin="round" stroke-width="2">
        <path d="m 63.229349 85.506729 c -25.957031 0 -47 2.5625 -47 5.722656 c 0 3.160157 21.042969 5.722657 47 5.722657 c 25.957032 0 47 -2.5625 47 -5.722657 c 0 -3.160156 -21.042968 -5.722656 -47 -5.722656 z m 0 0" stroke="url(#h)" transform="matrix(1 0 0 1 0.770651 -27.229385)"/>
        <path d="m 66.088724 86.272354 c -22.476562 -12.976562 -41.984375 -21.28125 -43.5625 -18.542969 c -1.582031 2.738282 15.363282 15.476563 37.84375 28.457032 c 22.476563 12.976562 41.984375 21.28125 43.5625 18.542968 c 1.582032 -2.738281 -15.363281 -15.476562 -37.84375 -28.457031 z m 0 0" stroke="url(#i)" transform="matrix(1 0 0 1 0.770651 -27.229385)"/>
        <path d="m 68.186381 88.37001 c -12.980469 -22.480468 -25.71875 -39.425781 -28.457032 -37.84375 c -2.738281 1.578125 5.566407 21.085938 18.542969 43.5625 c 12.980469 22.480469 25.71875 39.425782 28.457031 37.84375 c 2.738282 -1.578125 -5.566406 -21.085937 -18.542968 -43.5625 z m 0 0" stroke="url(#j)" transform="matrix(1 0 0 1 0.770651 -27.229385)"/>
        <path d="m 68.952006 91.229385 c 0 -25.957031 -2.5625 -47 -5.722657 -47 c -3.160156 0 -5.722656 21.042969 -5.722656 47 c 0 25.957032 2.5625 47 5.722656 47 c 3.160157 0 5.722657 -21.042968 5.722657 -47 z m 0 0" stroke="url(#k)" transform="matrix(1 0 0 1 0.770651 -27.229385)"/>
        <path d="m 68.186381 94.08876 c 12.976562 -22.476562 21.28125 -41.984375 18.542968 -43.5625 c -2.738281 -1.582031 -15.476562 15.363282 -28.457031 37.84375 c -12.976562 22.476563 -21.28125 41.984375 -18.542969 43.5625 c 2.738282 1.582032 15.476563 -15.363281 28.457032 -37.84375 z m 0 0" stroke="url(#l)" transform="matrix(1 0 0 1 0.770651 -27.229385)"/>
        <path d="m 66.088724 96.186417 c 22.480469 -12.980469 39.425782 -25.71875 37.84375 -28.457032 c -1.578125 -2.738281 -21.085937 5.566407 -43.5625 18.542969 c -22.480468 12.980469 -39.425781 25.71875 -37.84375 28.457031 c 1.578125 2.738282 21.085938 -5.566406 43.5625 -18.542968 z m 0 0" stroke="url(#m)" transform="matrix(1 0 0 1 0.770651 -27.229385)"/>
        <path d="m 64.709818 85.702042 c -25.074219 -6.71875 -46.0625 -9.691407 -46.878906 -6.636719 c -0.816406 3.050781 18.84375 10.972656 43.917969 17.691406 c 25.074218 6.71875 46.0625 9.691406 46.878906 6.636719 c 0.816406 -3.050781 -18.84375 -10.972656 -43.917969 -17.691406 z m 0 0" stroke="url(#o)" transform="matrix(1 0 0 1 0.770651 -27.229385)"/>
        <path d="m 67.276224 87.18251 c -18.355468 -18.355468 -35.046875 -31.421875 -37.28125 -29.1875 s 10.832032 18.925782 29.1875 37.28125 c 18.355469 18.355469 35.046875 31.421875 37.28125 29.1875 s -10.832031 -18.925781 -29.1875 -37.28125 z m 0 0" stroke="url(#p)" transform="matrix(1 0 0 1 0.770651 -27.229385)"/>
        <path d="m 68.756693 89.748917 c -6.71875 -25.074219 -14.640625 -44.734375 -17.691406 -43.917969 c -3.054688 0.816406 -0.082031 21.804687 6.636719 46.878906 s 14.640625 44.734375 17.691406 43.917969 c 3.054687 -0.816406 0.082031 -21.804688 -6.636719 -46.878906 z m 0 0" stroke="url(#q)" transform="matrix(1 0 0 1 0.770651 -27.229385)"/>
        <path d="m 68.756693 92.709854 c 6.71875 -25.074219 9.691406 -46.0625 6.636719 -46.878906 c -3.050781 -0.816406 -10.972656 18.84375 -17.691406 43.917969 c -6.71875 25.074218 -9.691407 46.0625 -6.636719 46.878906 c 3.050781 0.816406 10.972656 -18.84375 17.691406 -43.917969 z m 0 0" stroke="url(#r)" transform="matrix(1 0 0 1 0.770651 -27.229385)"/>
        <path d="m 67.276224 95.27626 c 18.355469 -18.355468 31.421875 -35.046875 29.1875 -37.28125 s -18.925781 10.832032 -37.28125 29.1875 c -18.355468 18.355469 -31.421875 35.046875 -29.1875 37.28125 s 18.925782 -10.832031 37.28125 -29.1875 z m 0 0" stroke="url(#s)" transform="matrix(1 0 0 1 0.770651 -27.229385)"/>
        <path d="m 64.709818 96.756729 c 25.074219 -6.71875 44.734375 -14.640625 43.917969 -17.691406 c -0.816406 -3.054688 -21.804688 -0.082031 -46.878906 6.636719 c -25.074219 6.71875 -44.734375 14.640625 -43.917969 17.691406 c 0.816406 3.054687 21.804687 0.082031 46.878906 -6.636719 z m 0 0" stroke="url(#t)" transform="matrix(1 0 0 1 0.770651 -27.229385)"/>
    </g>
    <g clip-path="url(#G)" mask="url(#C)">
        <g clip-path="url(#F)" mask="url(#D)">
            <path d="m 128 80.640625 v 47.359375 h -128 v -47.359375 z m 0 0" fill="url(#E)"/>
            <path d="m 13.308594 80.640625 l 47.355468 47.359375 h 21.214844 l -47.359375 -47.359375 z m 42.421875 0 l 47.363281 47.359375 h 21.214844 l -47.363282 -47.359375 z m 42.429687 0 l 29.839844 29.839844 v -21.210938 l -8.628906 -8.628906 z m -98.160156 7.90625 v 21.214844 l 18.238281 18.238281 h 21.214844 z m 0 0"/>
        </g>
    </g>
</svg>
