<?xml version="1.0" encoding="UTF-8"?>
<svg height="128px" viewBox="0 0 128 128" width="128px" xmlns="http://www.w3.org/2000/svg" xmlns:xlink="http://www.w3.org/1999/xlink">
    <linearGradient id="a" gradientUnits="userSpaceOnUse" x1="8.0000155" x2="120.0000155" y1="115.999979" y2="115.999979">
        <stop offset="0" stop-color="#1a5fb4"/>
        <stop offset="0.0384615" stop-color="#62a0ea"/>
        <stop offset="0.0768555" stop-color="#1c71d8"/>
        <stop offset="0.923077" stop-color="#1c71d8"/>
        <stop offset="0.961538" stop-color="#62a0ea"/>
        <stop offset="1" stop-color="#1a5fb4"/>
    </linearGradient>
    <clipPath id="b">
        <rect height="128" width="128"/>
    </clipPath>
    <clipPath id="c">
        <rect height="128" width="128"/>
    </clipPath>
    <filter id="d" height="100%" width="100%" x="0%" y="0%">
        <feColorMatrix in="SourceGraphic" type="matrix" values="0 0 0 0 1 0 0 0 0 1 0 0 0 0 1 0 0 0 1 0"/>
    </filter>
    <mask id="e">
        <g clip-path="url(#c)" filter="url(#d)">
            <g clip-path="url(#b)">
                <path d="m 16 40 h 96 c 4.417969 0 8 3.582031 8 8 v 60 c 0 4.417969 -3.582031 8 -8 8 h -96 c -4.417969 0 -8 -3.582031 -8 -8 v -60 c 0 -4.417969 3.582031 -8 8 -8 z m 0 0" fill="url(#a)"/>
                <path d="m 16 28 h 96 c 4.417969 0 8 3.582031 8 8 v 68 c 0 4.417969 -3.582031 8 -8 8 h -96 c -4.417969 0 -8 -3.582031 -8 -8 v -68 c 0 -4.417969 3.582031 -8 8 -8 z m 0 0" fill="#3584e4"/>
                <path d="m 62.585938 97.414062 l -5.171876 5.171876 c -0.90625 0.90625 -2.132812 1.414062 -3.414062 1.414062 h -28 c -1.28125 0 -2.507812 -0.507812 -3.414062 -1.414062 l -5.171876 -5.171876 c -0.78125 -0.78125 -0.78125 -2.046874 0 -2.828124 l 5.171876 -5.171876 c 0.90625 -0.90625 2.132812 -1.414062 3.414062 -1.414062 h 28 c 1.28125 0 2.507812 0.507812 3.414062 1.414062 l 5.171876 5.171876 c 0.78125 0.78125 0.78125 2.046874 0 2.828124 z m 0 0" fill="#241f31"/>
                <path d="m 110.585938 97.414062 l -5.171876 5.171876 c -0.90625 0.90625 -2.132812 1.414062 -3.414062 1.414062 h -28 c -1.28125 0 -2.507812 -0.507812 -3.414062 -1.414062 l -5.171876 -5.171876 c -0.78125 -0.78125 -0.78125 -2.046874 0 -2.828124 l 5.171876 -5.171876 c 0.90625 -0.90625 2.132812 -1.414062 3.414062 -1.414062 h 28 c 1.28125 0 2.507812 0.507812 3.414062 1.414062 l 5.171876 5.171876 c 0.78125 0.78125 0.78125 2.046874 0 2.828124 z m 0 0" fill="#33d17a"/>
                <path d="m 62.585938 77.414062 l -5.171876 5.171876 c -0.90625 0.90625 -2.132812 1.414062 -3.414062 1.414062 h -28 c -1.28125 0 -2.507812 -0.507812 -3.414062 -1.414062 l -5.171876 -5.171876 c -0.78125 -0.78125 -0.78125 -2.046874 0 -2.828124 l 5.171876 -5.171876 c 0.90625 -0.90625 2.132812 -1.414062 3.414062 -1.414062 h 28 c 1.28125 0 2.507812 0.507812 3.414062 1.414062 l 5.171876 5.171876 c 0.78125 0.78125 0.78125 2.046874 0 2.828124 z m 0 0" fill="#241f31"/>
                <path d="m 110.585938 77.414062 l -5.171876 5.171876 c -0.90625 0.90625 -2.132812 1.414062 -3.414062 1.414062 h -28 c -1.28125 0 -2.507812 -0.507812 -3.414062 -1.414062 l -5.171876 -5.171876 c -0.78125 -0.78125 -0.78125 -2.046874 0 -2.828124 l 5.171876 -5.171876 c 0.90625 -0.90625 2.132812 -1.414062 3.414062 -1.414062 h 28 c 1.28125 0 2.507812 0.507812 3.414062 1.414062 l 5.171876 5.171876 c 0.78125 0.78125 0.78125 2.046874 0 2.828124 z m 0 0" fill="#241f31"/>
                <path d="m 110.890625 53.664062 l -5.78125 8.671876 c -0.691406 1.039062 -1.859375 1.664062 -3.109375 1.664062 h -76 c -1.25 0 -2.417969 -0.625 -3.109375 -1.664062 l -5.78125 -8.671876 c -0.671875 -1.007812 -0.671875 -2.320312 0 -3.328124 l 5.78125 -8.671876 c 0.691406 -1.039062 1.859375 -1.664062 3.109375 -1.664062 h 76 c 1.25 0 2.417969 0.625 3.109375 1.664062 l 5.78125 8.671876 c 0.671875 1.007812 0.671875 2.320312 0 3.328124 z m 0 0" fill="#241f31"/>
                <path d="m 28 44 h 72 v 4 h -72 z m 0 0" fill="#f6f5f4"/>
                <path d="m 36 50 h 56 v 4 h -56 z m 0 0" fill="#f6f5f4"/>
                <path d="m 32 56 h 64 v 4 h -64 z m 0 0" fill="#f6f5f4"/>
                <path d="m 22 74 h 4 v 4 h -4 z m 0 0" fill="#ff7800"/>
                <path d="m 22 94 h 4 v 4 h -4 z m 0 0" fill="#ff7800"/>
                <path d="m 70 94 h 4 v 4 h -4 z m 0 0" fill="#ff7800"/>
                <path d="m 70 74 h 4 v 4 h -4 z m 0 0" fill="#ff7800"/>
                <path d="m 30 74 h 18 v 4 h -18 z m 0 0" fill="#f6f5f4"/>
                <path d="m 78 74 h 22 v 4 h -22 z m 0 0" fill="#f6f5f4"/>
                <path d="m 30 94 h 26 v 4 h -26 z m 0 0" fill="#f6f5f4"/>
                <path d="m 76 94 h 22 v 4 h -22 z m 0 0" fill="#f6f5f4"/>
            </g>
        </g>
    </mask>
    <mask id="f">
        <g filter="url(#d)">
            <rect fill-opacity="0.8" height="128" width="128"/>
        </g>
    </mask>
    <linearGradient id="g" gradientTransform="matrix(0 0.37 -0.98462 0 295.38501 -30.360001)" gradientUnits="userSpaceOnUse" x1="300" x2="428" y1="235" y2="235">
        <stop offset="0" stop-color="#f9f06b"/>
        <stop offset="1" stop-color="#f5c211"/>
    </linearGradient>
    <clipPath id="h">
        <rect height="128" width="128"/>
    </clipPath>
    <clipPath id="i">
        <rect height="128" width="128"/>
    </clipPath>
    <path d="m 16 40 h 96 c 4.417969 0 8 3.582031 8 8 v 60 c 0 4.417969 -3.582031 8 -8 8 h -96 c -4.417969 0 -8 -3.582031 -8 -8 v -60 c 0 -4.417969 3.582031 -8 8 -8 z m 0 0" fill="url(#a)"/>
    <path d="m 16 28 h 96 c 4.417969 0 8 3.582031 8 8 v 68 c 0 4.417969 -3.582031 8 -8 8 h -96 c -4.417969 0 -8 -3.582031 -8 -8 v -68 c 0 -4.417969 3.582031 -8 8 -8 z m 0 0" fill="#3584e4"/>
    <path d="m 62.585938 97.414062 l -5.171876 5.171876 c -0.90625 0.90625 -2.132812 1.414062 -3.414062 1.414062 h -28 c -1.28125 0 -2.507812 -0.507812 -3.414062 -1.414062 l -5.171876 -5.171876 c -0.78125 -0.78125 -0.78125 -2.046874 0 -2.828124 l 5.171876 -5.171876 c 0.90625 -0.90625 2.132812 -1.414062 3.414062 -1.414062 h 28 c 1.28125 0 2.507812 0.507812 3.414062 1.414062 l 5.171876 5.171876 c 0.78125 0.78125 0.78125 2.046874 0 2.828124 z m 0 0" fill="#241f31"/>
    <path d="m 110.585938 97.414062 l -5.171876 5.171876 c -0.90625 0.90625 -2.132812 1.414062 -3.414062 1.414062 h -28 c -1.28125 0 -2.507812 -0.507812 -3.414062 -1.414062 l -5.171876 -5.171876 c -0.78125 -0.78125 -0.78125 -2.046874 0 -2.828124 l 5.171876 -5.171876 c 0.90625 -0.90625 2.132812 -1.414062 3.414062 -1.414062 h 28 c 1.28125 0 2.507812 0.507812 3.414062 1.414062 l 5.171876 5.171876 c 0.78125 0.78125 0.78125 2.046874 0 2.828124 z m 0 0" fill="#33d17a"/>
    <path d="m 62.585938 77.414062 l -5.171876 5.171876 c -0.90625 0.90625 -2.132812 1.414062 -3.414062 1.414062 h -28 c -1.28125 0 -2.507812 -0.507812 -3.414062 -1.414062 l -5.171876 -5.171876 c -0.78125 -0.78125 -0.78125 -2.046874 0 -2.828124 l 5.171876 -5.171876 c 0.90625 -0.90625 2.132812 -1.414062 3.414062 -1.414062 h 28 c 1.28125 0 2.507812 0.507812 3.414062 1.414062 l 5.171876 5.171876 c 0.78125 0.78125 0.78125 2.046874 0 2.828124 z m 0 0" fill="#241f31"/>
    <path d="m 110.585938 77.414062 l -5.171876 5.171876 c -0.90625 0.90625 -2.132812 1.414062 -3.414062 1.414062 h -28 c -1.28125 0 -2.507812 -0.507812 -3.414062 -1.414062 l -5.171876 -5.171876 c -0.78125 -0.78125 -0.78125 -2.046874 0 -2.828124 l 5.171876 -5.171876 c 0.90625 -0.90625 2.132812 -1.414062 3.414062 -1.414062 h 28 c 1.28125 0 2.507812 0.507812 3.414062 1.414062 l 5.171876 5.171876 c 0.78125 0.78125 0.78125 2.046874 0 2.828124 z m 0 0" fill="#241f31"/>
    <path d="m 110.890625 53.664062 l -5.78125 8.671876 c -0.691406 1.039062 -1.859375 1.664062 -3.109375 1.664062 h -76 c -1.25 0 -2.417969 -0.625 -3.109375 -1.664062 l -5.78125 -8.671876 c -0.671875 -1.007812 -0.671875 -2.320312 0 -3.328124 l 5.78125 -8.671876 c 0.691406 -1.039062 1.859375 -1.664062 3.109375 -1.664062 h 76 c 1.25 0 2.417969 0.625 3.109375 1.664062 l 5.78125 8.671876 c 0.671875 1.007812 0.671875 2.320312 0 3.328124 z m 0 0" fill="#241f31"/>
    <path d="m 28 44 h 72 v 4 h -72 z m 0 0" fill="#f6f5f4"/>
    <path d="m 36 50 h 56 v 4 h -56 z m 0 0" fill="#f6f5f4"/>
    <path d="m 32 56 h 64 v 4 h -64 z m 0 0" fill="#f6f5f4"/>
    <path d="m 22 74 h 4 v 4 h -4 z m 0 0" fill="#ff7800"/>
    <path d="m 22 94 h 4 v 4 h -4 z m 0 0" fill="#ff7800"/>
    <path d="m 70 94 h 4 v 4 h -4 z m 0 0" fill="#ff7800"/>
    <path d="m 70 74 h 4 v 4 h -4 z m 0 0" fill="#ff7800"/>
    <g fill="#f6f5f4">
        <path d="m 30 74 h 18 v 4 h -18 z m 0 0"/>
        <path d="m 78 74 h 22 v 4 h -22 z m 0 0"/>
        <path d="m 30 94 h 26 v 4 h -26 z m 0 0"/>
        <path d="m 76 94 h 22 v 4 h -22 z m 0 0"/>
    </g>
    <g clip-path="url(#i)" mask="url(#e)">
        <g clip-path="url(#h)" mask="url(#f)">
            <path d="m 128 80.640625 v 47.359375 h -128 v -47.359375 z m 0 0" fill="url(#g)"/>
            <path d="m 13.308594 80.640625 l 47.355468 47.359375 h 21.214844 l -47.359375 -47.359375 z m 42.421875 0 l 47.363281 47.359375 h 21.214844 l -47.363282 -47.359375 z m 42.429687 0 l 29.839844 29.839844 v -21.210938 l -8.628906 -8.628906 z m -98.160156 7.90625 v 21.214844 l 18.238281 18.238281 h 21.214844 z m 0 0"/>
        </g>
    </g>
</svg>
